<svg xmlns="http://www.w3.org/2000/svg" viewBox="0 0 256 256" role="img" aria-labelledby="scaredfish-title scaredfish-desc">
  <title id="scaredfish-title">ScaredFish</title>
  <desc id="scaredfish-desc">An original wide-eyed blue fish fleeing from oversized chess pawns.</desc>
  <defs>
    <linearGradient id="scared-body" x1="44" y1="80" x2="203" y2="183" gradientUnits="userSpaceOnUse">
      <stop stop-color="#BFEAFF"/>
      <stop offset="0.48" stop-color="#5D90E8"/>
      <stop offset="1" stop-color="#5946B5"/>
    </linearGradient>
    <linearGradient id="scared-fin" x1="25" y1="87" x2="70" y2="177" gradientUnits="userSpaceOnUse">
      <stop stop-color="#77C9F4"/>
      <stop offset="1" stop-color="#5946B5"/>
    </linearGradient>
    <filter id="scared-shadow" x="-30%" y="-30%" width="160%" height="170%">
      <feDropShadow dx="0" dy="6" stdDeviation="5" flood-color="#231B55" flood-opacity="0.38"/>
    </filter>
  </defs>
  <g fill="none" stroke="#A4D8FF" stroke-width="6" stroke-linecap="round" opacity="0.72">
    <path d="M31 68H7M39 86H16M29 179H8M39 196H18"/>
  </g>
  <g filter="url(#scared-shadow)" stroke="#263257" stroke-linejoin="round">
    <path d="M55 129 18 86l7 44-8 43 40-30Z" fill="url(#scared-fin)" stroke-width="6"/>
    <path d="M47 131C62 80 111 66 168 82c33 10 51 37 45 63-8 33-50 49-98 42-38-6-62-25-68-56Z" fill="url(#scared-body)" stroke-width="6"/>
    <path d="M104 177c9-24 29-33 49-23-7 23-25 35-49 23Z" fill="#5240A4" stroke-width="4"/>
    <circle cx="173" cy="111" r="23" fill="#F8FCFF" stroke-width="5"/>
    <circle cx="181" cy="113" r="10" fill="#17213D" stroke="none"/>
    <circle cx="185" cy="108" r="4" fill="#FFF" stroke="none"/>
    <path d="M198 141c8-7 15-8 22-3" fill="none" stroke-width="5" stroke-linecap="round"/>
    <path d="M190 146c9 5 17 6 24 3" fill="none" stroke="#EAF7FF" stroke-width="4" stroke-linecap="round"/>
  </g>
  <g filter="url(#scared-shadow)" fill="#FFDB78" stroke="#4C3650" stroke-width="4" stroke-linejoin="round">
    <g transform="translate(184 25) scale(.64)">
      <circle cx="37" cy="20" r="16"/>
      <path d="M16 75c0-19 8-32 21-39 13 7 21 20 21 39Z"/>
      <path d="M8 75h58l7 14H1Z"/>
    </g>
    <g transform="translate(195 143) scale(.78)">
      <circle cx="37" cy="20" r="16"/>
      <path d="M16 75c0-19 8-32 21-39 13 7 21 20 21 39Z"/>
      <path d="M8 75h58l7 14H1Z"/>
    </g>
    <g transform="translate(137 184) scale(.54)">
      <circle cx="37" cy="20" r="16"/>
      <path d="M16 75c0-19 8-32 21-39 13 7 21 20 21 39Z"/>
      <path d="M8 75h58l7 14H1Z"/>
    </g>
  </g>
  <path d="m144 61-7-12M157 57l1-14M169 61l8-12" stroke="#FFE48F" stroke-width="5" stroke-linecap="round"/>
</svg>
