<!-- Original local illustration based only on the publicly visible Tony profile description. -->
<svg xmlns="http://www.w3.org/2000/svg" width="512" height="512" viewBox="0 0 512 512">
  <defs>
    <linearGradient id="background" x1="0" y1="0" x2="1" y2="1">
      <stop offset="0" stop-color="#30313a"/>
      <stop offset="1" stop-color="#171820"/>
    </linearGradient>
    <linearGradient id="shirt" x1="0" y1="0" x2="0" y2="1">
      <stop offset="0" stop-color="#8b5cf6"/>
      <stop offset="1" stop-color="#5b21b6"/>
    </linearGradient>
  </defs>
  <rect x="20" y="20" width="472" height="472" rx="104" fill="url(#background)"/>
  <path d="M126 472c10-94 57-144 130-144s120 50 130 144H126z" fill="url(#shirt)"/>
  <path d="M193 309h126v69c-16 24-37 36-63 36s-47-12-63-36v-69z" fill="#c88961"/>
  <ellipse cx="256" cy="224" rx="111" ry="128" fill="#dda074"/>
  <path d="M146 210c-4-74 36-132 108-132 78 0 119 54 112 137-15-8-27-24-35-48-41 25-95 32-161 20-3 9-11 17-24 23z" fill="#202029"/>
  <path d="M167 185c-23 4-33 23-27 51 5 25 18 38 39 34l-12-85zm178 0c23 4 33 23 27 51-5 25-18 38-39 34l12-85z" fill="#dda074"/>
  <path d="M186 212c20-12 40-12 59 0" fill="none" stroke="#29262a" stroke-width="13" stroke-linecap="round"/>
  <path d="M267 212c20-12 40-12 59 0" fill="none" stroke="#29262a" stroke-width="13" stroke-linecap="round"/>
  <ellipse cx="216" cy="231" rx="10" ry="13" fill="#171820"/>
  <ellipse cx="296" cy="231" rx="10" ry="13" fill="#171820"/>
  <path d="M245 251c-4 16-1 25 11 27" fill="none" stroke="#b97454" stroke-width="8" stroke-linecap="round"/>
  <path d="M217 296c25 16 51 16 78 0" fill="none" stroke="#7d423b" stroke-width="9" stroke-linecap="round"/>
  <circle cx="417" cy="95" r="54" fill="#f6c453"/>
  <text x="417" y="112" fill="#242530" font-family="Arial, sans-serif" font-size="48" font-weight="700" text-anchor="middle">+200</text>
</svg>
